<svg width="20" height="20" viewBox="0 0 20 20" fill="none" xmlns="http://www.w3.org/2000/svg">
<circle cx="9.84616" cy="10.1922" r="9.61538" fill="#1FA1FF"/>
<path fill-rule="evenodd" clip-rule="evenodd" d="M10.8077 6.34606C10.8077 5.81502 10.3772 5.38452 9.84614 5.38452C9.3151 5.38452 8.88461 5.81502 8.88461 6.34606V9.23068H5.99999C5.46895 9.23068 5.03845 9.66117 5.03845 10.1922C5.03845 10.7233 5.46895 11.1538 5.99999 11.1538H8.8846V14.0384C8.8846 14.5694 9.3151 14.9999 9.84614 14.9999C10.3772 14.9999 10.8077 14.5694 10.8077 14.0384V11.1538H13.6923C14.2233 11.1538 14.6538 10.7233 14.6538 10.1922C14.6538 9.66117 14.2233 9.23068 13.6923 9.23068H10.8077V6.34606Z" fill="white"/>
</svg>
