<svg width="24" height="24" viewBox="0 0 24 24" fill="none"
    xmlns="http://www.w3.org/2000/svg">
    <path d="M17.6859 5.82048H17.2788L15.5288 3.55125C15.3033 3.26103 15.0147 3.02595 14.6848 2.8638C14.355 2.70165 13.9925 2.61669 13.625 2.61536L10.5288 2.61536C10.1613 2.61669 9.79885 2.70165 9.469 2.8638C9.13914 3.02595 8.85052 3.26103 8.62498 3.55125L6.87498 5.82048H6.46793C5.40575 5.82176 4.38744 6.24427 3.63637 6.99534C2.8853 7.74641 2.46279 8.76472 2.46152 9.82689L2.46152 17.8397C2.46279 18.9019 2.8853 19.9202 3.63637 20.6713C4.38744 21.4223 5.40575 21.8449 6.46793 21.8461H17.6859C18.7481 21.8449 19.7664 21.4223 20.5174 20.6713C21.2685 19.9202 21.691 18.9019 21.6923 17.8397V9.82689C21.691 8.76472 21.2685 7.74641 20.5174 6.99534C19.7664 6.24427 18.7481 5.82176 17.6859 5.82048ZM9.89421 4.53042C9.96927 4.43351 10.0654 4.35499 10.1754 4.30084C10.2854 4.24669 10.4062 4.21833 10.5288 4.21792H13.625C13.7475 4.21845 13.8684 4.24686 13.9783 4.301C14.0883 4.35514 14.1845 4.4336 14.2596 4.53042L15.2548 5.82048H8.89902L9.89421 4.53042ZM20.0897 17.8397C20.0897 18.4773 19.8365 19.0887 19.3857 19.5395C18.9348 19.9903 18.3234 20.2436 17.6859 20.2436H6.46793C5.83039 20.2436 5.21896 19.9903 4.76815 19.5395C4.31734 19.0887 4.06408 18.4773 4.06408 17.8397V9.82689C4.06408 9.18935 4.31734 8.57793 4.76815 8.12712C5.21896 7.67631 5.83039 7.42305 6.46793 7.42305H17.6859C18.3234 7.42305 18.9348 7.67631 19.3857 8.12712C19.8365 8.57793 20.0897 9.18935 20.0897 9.82689V17.8397Z" fill="currentColor"/>
    <path d="M12.0769 9.34607C11.126 9.34607 10.1965 9.62804 9.40591 10.1563C8.61529 10.6846 7.99907 11.4354 7.63519 12.3139C7.27131 13.1924 7.1761 14.1591 7.36161 15.0917C7.54711 16.0243 8.005 16.8809 8.67737 17.5533C9.34974 18.2257 10.2064 18.6836 11.139 18.8691C12.0716 19.0546 13.0383 18.9594 13.9167 18.5955C14.7952 18.2316 15.5461 17.6154 16.0744 16.8248C16.6026 16.0341 16.8846 15.1046 16.8846 14.1538C16.8833 12.8791 16.3764 11.657 15.4751 10.7556C14.5737 9.85427 13.3516 9.34734 12.0769 9.34607ZM12.0769 17.3589C11.443 17.3589 10.8233 17.1709 10.2962 16.8187C9.76917 16.4665 9.35836 15.966 9.11577 15.3803C8.87318 14.7946 8.80971 14.1502 8.93338 13.5285C9.05705 12.9067 9.36231 12.3356 9.81055 11.8874C10.2588 11.4391 10.8299 11.1339 11.4516 11.0102C12.0734 10.8865 12.7178 10.95 13.3035 11.1926C13.8891 11.4352 14.3897 11.846 14.7419 12.3731C15.0941 12.9002 15.282 13.5198 15.282 14.1538C15.282 15.0038 14.9444 15.819 14.3433 16.4201C13.7422 17.0212 12.927 17.3589 12.0769 17.3589Z" fill="currentColor"/>
</svg>
