<svg width="24" height="25" viewBox="0 0 24 25" fill="none"
    xmlns="http://www.w3.org/2000/svg">
    <mask id="path-1-inside-1_1_2091" fill="currentColor">
        <path fill-rule="evenodd" clip-rule="evenodd" d="M21.4517 18.3228C22.435 16.6757 23 14.75 23 12.6923C23 6.61719 18.0751 1.69232 12 1.69232C5.92487 1.69232 1 6.61719 1 12.6923C1 18.7675 5.92487 23.6923 12 23.6923C14.062 23.6923 15.9915 23.125 17.6409 22.1378L22.8478 23.533L21.4517 18.3228Z"/>
    </mask>
    <path d="M21.4517 18.3228L19.9062 17.4001C19.6568 17.8178 19.5871 18.3187 19.7131 18.7887L21.4517 18.3228ZM17.6409 22.1378L18.1068 20.3991C17.6362 20.273 17.1346 20.3431 16.7165 20.5933L17.6409 22.1378ZM22.8478 23.533L22.3819 25.2717C23.0031 25.4381 23.6659 25.2605 24.1206 24.8058C24.5753 24.3511 24.7529 23.6883 24.5865 23.0671L22.8478 23.533ZM21.2 12.6923C21.2 14.4162 20.7276 16.0242 19.9062 17.4001L22.9973 19.2455C24.1425 17.3272 24.8 15.0838 24.8 12.6923H21.2ZM12 3.49232C17.081 3.49232 21.2 7.6113 21.2 12.6923H24.8C24.8 5.62308 19.0692 -0.107678 12 -0.107678V3.49232ZM2.8 12.6923C2.8 7.6113 6.91898 3.49232 12 3.49232V-0.107678C4.93076 -0.107678 -0.8 5.62308 -0.8 12.6923H2.8ZM12 21.8923C6.91898 21.8923 2.8 17.7733 2.8 12.6923H-0.8C-0.8 19.7616 4.93076 25.4923 12 25.4923V21.8923ZM16.7165 20.5933C15.3387 21.4179 13.7275 21.8923 12 21.8923V25.4923C14.3965 25.4923 16.6443 24.832 18.5653 23.6823L16.7165 20.5933ZM17.175 23.8765L22.3819 25.2717L23.3137 21.7943L18.1068 20.3991L17.175 23.8765ZM24.5865 23.0671L23.1904 17.8569L19.7131 18.7887L21.1091 23.9989L24.5865 23.0671Z" fill="currentColor" mask="url(#path-1-inside-1_1_2091)"/>
</svg>
