<svg width="28" height="27" viewBox="0 0 28 27" fill="none"
    xmlns="http://www.w3.org/2000/svg">
    <path d="M25.1949 12.8344C25.06 10.6517 24.2893 8.55618 22.9778 6.80618C21.6663 5.05619 19.8714 3.72822 17.8144 2.986C15.7573 2.24378 13.528 2.11975 11.4013 2.62921C9.27457 3.13866 7.34343 4.25933 5.84593 5.85305C4.34844 7.44677 3.35005 9.44387 2.97386 11.5981C2.59767 13.7524 2.86011 15.9697 3.72884 17.9766C4.59756 19.9836 6.0346 21.6924 7.86277 22.8925C9.69095 24.0926 11.8304 24.7314 14.0172 24.7303H20.5309C21.7675 24.7291 22.9531 24.2373 23.8275 23.3629C24.7019 22.4885 25.1936 21.3029 25.1949 20.0663V12.8344ZM23.3293 20.0663C23.3293 20.8085 23.0345 21.5203 22.5097 22.0451C21.9849 22.5699 21.2731 22.8647 20.5309 22.8647H14.0172C12.701 22.8641 11.3997 22.5861 10.1981 22.0488C8.99653 21.5115 7.9217 20.727 7.04368 19.7464C6.16142 18.7663 5.49892 17.6089 5.10058 16.3518C4.70224 15.0947 4.57729 13.7669 4.73409 12.4576C4.98169 10.3923 5.90958 8.46819 7.3715 6.98854C8.83342 5.50889 10.7462 4.55786 12.8083 4.28538C13.2106 4.23497 13.6156 4.20942 14.021 4.20889C16.1948 4.20296 18.3014 4.9625 19.9712 6.35431C20.9465 7.16486 21.747 8.165 22.3242 9.29413C22.9015 10.4233 23.2434 11.6578 23.3293 12.923V20.0663Z" fill="currentColor"/>
</svg>
