<svg width="24" height="25" viewBox="0 0 24 25" fill="none"
    xmlns="http://www.w3.org/2000/svg">
    <path d="M12.3139 6.87565L11.6641 6.2452C11.5296 6.1147 11.4001 5.98965 11.2744 5.86818C11.0546 5.65583 10.846 5.45438 10.6414 5.25373C9.00066 3.64595 6.7423 3.19075 4.93293 3.97199L4.93277 3.97206C3.11901 4.75477 1.85696 6.74823 1.90105 8.98006L1.90105 8.98012C1.93436 10.672 2.64321 12.1721 3.67628 13.6563L3.67657 13.6567C5.9314 16.9001 8.9903 19.3362 12.2533 21.7221C14.6307 19.9912 16.895 18.2048 18.8502 16.0897L19.5111 16.7006L18.8502 16.0897C20.5093 14.2949 21.8745 12.4794 22.4325 10.2314L22.4325 10.2312C23.0206 7.86456 22.0148 5.39899 20.1001 4.24683L12.3139 6.87565ZM12.3139 6.87565L12.9405 6.22203M12.3139 6.87565L12.9405 6.22203M12.9405 6.22203C13.0846 6.07167 13.212 5.93357 13.3317 5.80373C13.5615 5.55453 13.7632 5.33574 14.0019 5.11899L14.0022 5.11868M12.9405 6.22203L14.0022 5.11868M14.0022 5.11868C15.8652 3.42473 18.2782 3.15122 20.0999 4.24674L14.0022 5.11868ZM12.0872 21.8428C12.0874 21.8426 12.0877 21.8425 12.0879 21.8423C12.0877 21.8425 12.0875 21.8426 12.0873 21.8428L12.0872 21.8428ZM12.1764 21.7926L12.1834 21.7922C12.1896 21.7921 12.2037 21.792 12.2249 21.7945C12.2452 21.7968 12.2813 21.8025 12.3277 21.8177C12.3732 21.8325 12.444 21.8614 12.5214 21.9178L12.1764 21.7926Z" stroke="currentColor" stroke-width="1.8"/>
</svg>
