<svg width="12" height="12" viewBox="0 0 12 12" fill="none"
    xmlns="http://www.w3.org/2000/svg">
    <path d="M9.9976 1.52404C9.81673 1.37319 9.60467 1.26431 9.37669 1.20522C9.14871 1.14612 8.91046 1.1383 8.67909 1.18229L4.9996 1.8722C4.54036 1.95826 4.12565 2.20215 3.82722 2.56167C3.5288 2.92118 3.36543 3.37371 3.36539 3.84094V7.78725C3.12286 7.64305 2.84626 7.56616 2.5641 7.5645C2.24715 7.5645 1.93731 7.65848 1.67377 7.83458C1.41023 8.01067 1.20482 8.26095 1.08353 8.55378C0.962235 8.84661 0.930498 9.16883 0.992334 9.4797C1.05417 9.79057 1.2068 10.0761 1.43092 10.3002C1.65504 10.5244 1.94059 10.677 2.25146 10.7388C2.56233 10.8007 2.88455 10.7689 3.17738 10.6476C3.47021 10.5263 3.7205 10.3209 3.89659 10.0574C4.07268 9.79385 4.16667 9.48401 4.16667 9.16706V5.51161C4.16665 5.32467 4.23201 5.1436 4.35141 4.99976C4.47082 4.85592 4.63676 4.75835 4.82051 4.72395L9.30088 3.88261C9.359 3.87167 9.41882 3.87373 9.47605 3.88864C9.53328 3.90356 9.58649 3.93095 9.63188 3.96887C9.67726 4.00679 9.71369 4.05428 9.73855 4.10794C9.7634 4.16161 9.77607 4.22011 9.77564 4.27924V6.58693C9.53327 6.44217 9.25666 6.36472 8.97436 6.36257C8.6574 6.36257 8.34756 6.45656 8.08402 6.63265C7.82048 6.80875 7.61508 7.05903 7.49378 7.35186C7.37249 7.64469 7.34075 7.96691 7.40259 8.27778C7.46442 8.58865 7.61705 8.8742 7.84118 9.09832C8.0653 9.32244 8.35085 9.47507 8.66172 9.53691C8.97258 9.59874 9.2948 9.567 9.58763 9.44571C9.88046 9.32442 10.1308 9.11901 10.3068 8.85547C10.4829 8.59193 10.5769 8.28209 10.5769 7.96514V2.75681C10.5772 2.52133 10.5254 2.2887 10.4252 2.07558C10.3251 1.86246 10.1791 1.67412 9.9976 1.52404Z" fill="currentColor"/>
</svg>
