<svg width="17" height="17" viewBox="0 0 17 17" fill="none"
    xmlns="http://www.w3.org/2000/svg">
    <path d="M15.2032 13.9182L11.8898 10.6048C12.7927 9.50053 13.2367 8.09141 13.1298 6.66895C13.0229 5.24649 12.3734 3.91952 11.3156 2.96253C10.2578 2.00553 8.87259 1.49172 7.44657 1.52737C6.02055 1.56303 4.66278 2.14542 3.65412 3.15409C2.64545 4.16275 2.06306 5.52052 2.0274 6.94654C1.99175 8.37256 2.50556 9.75774 3.46256 10.8156C4.41955 11.8734 5.74652 12.5229 7.16898 12.6298C8.59144 12.7366 10.0006 12.2927 11.1049 11.3898L14.4183 14.7031C14.523 14.8043 14.6632 14.8602 14.8087 14.8589C14.9543 14.8577 15.0935 14.7993 15.1964 14.6964C15.2993 14.5935 15.3577 14.4542 15.359 14.3087C15.3602 14.1631 15.3043 14.0229 15.2032 13.9182ZM7.59443 11.5352C6.71612 11.5352 5.85754 11.2747 5.12725 10.7868C4.39697 10.2988 3.82778 9.60527 3.49167 8.79382C3.15555 7.98237 3.06761 7.08947 3.23896 6.22804C3.41031 5.36661 3.83325 4.57534 4.45431 3.95428C5.07537 3.33322 5.86664 2.91028 6.72807 2.73893C7.5895 2.56758 8.4824 2.65552 9.29385 2.99164C10.1053 3.32775 10.7989 3.89694 11.2868 4.62722C11.7748 5.35751 12.0352 6.21609 12.0352 7.0944C12.0339 8.27176 11.5656 9.40053 10.7331 10.2331C9.90056 11.0656 8.77179 11.5339 7.59443 11.5352Z" fill="currentColor"/>
</svg>
