<svg width="32" height="28" viewBox="0 0 32 28" fill="none"
    xmlns="http://www.w3.org/2000/svg">
    <g filter="url(#filter0_d_1_3020)">
        <g clip-path="url(#clip0_1_3020)">
            <path d="M26.3944 4.78407C26.0592 4.49331 25.6422 4.28155 25.1837 4.16926C24.7252 4.05697 24.2406 4.04794 23.7769 4.14305L8.8196 6.84337C7.95823 6.94462 7.14694 7.25 6.47711 7.72511C5.80728 8.20022 5.3055 8.82619 5.02829 9.53252C4.75107 10.2389 4.70944 10.9975 4.90806 11.723C5.10669 12.4486 5.53769 13.1121 6.15253 13.639L7.75857 15.0148C7.8455 15.0893 7.91443 15.1778 7.96143 15.2751C8.00843 15.3725 8.03257 15.4768 8.03248 15.5821V18.1206C8.03454 18.4775 8.1304 18.8295 8.31292 19.1503L8.30545 19.1559L8.32975 19.1767C8.60367 19.6488 9.05105 20.0305 9.60299 20.2632L9.62729 20.2841L9.63384 20.2777C10.0081 20.4341 10.4187 20.5163 10.8351 20.518H13.7966C14.0444 20.5179 14.2821 20.602 14.4576 20.752L16.0627 22.1278C16.4932 22.5009 17.0056 22.7973 17.5703 22.9999C18.1351 23.2024 18.741 23.3072 19.3533 23.3081C19.8634 23.3076 20.3701 23.2361 20.8537 23.0966C21.6702 22.8668 22.3955 22.4459 22.9479 21.8816C23.5002 21.3172 23.8576 20.6318 23.9797 19.9027L27.1348 7.0541C27.2515 6.65318 27.2446 6.23313 27.1148 5.83516C26.985 5.4372 26.7367 5.07499 26.3944 4.78407ZM9.08229 13.8834L7.47532 12.5076C7.10112 12.1946 6.83886 11.7966 6.71931 11.3603C6.59976 10.924 6.62788 10.4676 6.80037 10.0445C6.96761 9.61045 7.27676 9.22672 7.69107 8.93893C8.10538 8.65114 8.60741 8.4714 9.13744 8.42109L23.9461 5.74882L9.90026 17.7897V15.5821C9.90168 15.2667 9.83012 14.9542 9.68971 14.6626C9.54931 14.371 9.34286 14.1062 9.08229 13.8834ZM22.1428 19.6286C22.071 20.0712 21.8567 20.4879 21.524 20.8319C21.1913 21.1758 20.7533 21.4335 20.2592 21.576C19.7651 21.7185 19.2345 21.7401 18.7269 21.6384C18.2192 21.5368 17.7547 21.3158 17.3854 21.0004L15.7775 19.6222C15.518 19.3985 15.2093 19.2212 14.8693 19.1004C14.5293 18.9797 14.1647 18.9179 13.7966 18.9187H11.2212L25.2689 6.88183L22.1428 19.6286Z" fill="currentColor"/>
        </g>
    </g>
    <defs>
        <filter id="filter0_d_1_3020" x="-1.3077" y="-1.69192" width="34.6154" height="30.7692" filterUnits="userSpaceOnUse" color-interpolation-filters="sRGB">
            <feFlood flood-opacity="0" result="BackgroundImageFix"/>
            <feColorMatrix in="SourceAlpha" type="matrix" values="0 0 0 0 0 0 0 0 0 0 0 0 0 0 0 0 0 0 127 0" result="hardAlpha"/>
            <feOffset/>
            <feGaussianBlur stdDeviation="1.92308"/>
            <feColorMatrix type="matrix" values="0 0 0 0 0 0 0 0 0 0 0 0 0 0 0 0 0 0 0.35 0"/>
            <feBlend mode="normal" in2="BackgroundImageFix" result="effect1_dropShadow_1_3020"/>
            <feBlend mode="normal" in="SourceGraphic" in2="effect1_dropShadow_1_3020" result="shape"/>
        </filter>
        <clipPath id="clip0_1_3020">
            <rect width="22.4359" height="19.2308" fill="currentColor" transform="translate(4.78204 4.07733)"/>
        </clipPath>
    </defs>
</svg>
