<svg width="10" height="10" viewBox="0 0 10 10" fill="none"
    xmlns="http://www.w3.org/2000/svg">
    <path d="M7.89823 1.4852C7.76439 1.37358 7.60747 1.293 7.43876 1.24927C7.27005 1.20555 7.09375 1.19975 6.92253 1.23231L4.19971 1.74284C3.85987 1.80653 3.55299 1.987 3.33215 2.25305C3.11132 2.51909 2.99042 2.85396 2.99039 3.19971V6.11998C2.81092 6.01327 2.60624 5.95637 2.39745 5.95514C2.1629 5.95514 1.93362 6.02469 1.7386 6.155C1.54358 6.28531 1.39158 6.47052 1.30182 6.68721C1.21206 6.90391 1.18858 7.14235 1.23434 7.37239C1.28009 7.60243 1.39304 7.81374 1.55889 7.97959C1.72474 8.14544 1.93605 8.25839 2.16609 8.30414C2.39613 8.3499 2.63457 8.32642 2.85127 8.23666C3.06796 8.1469 3.25318 7.9949 3.38348 7.79988C3.51379 7.60486 3.58334 7.37558 3.58334 7.14104V4.43601C3.58333 4.29767 3.63169 4.16368 3.72005 4.05724C3.80841 3.95079 3.93121 3.87859 4.06719 3.85314L7.38266 3.23054C7.42567 3.22245 7.46993 3.22397 7.51228 3.23501C7.55463 3.24604 7.59401 3.26632 7.6276 3.29438C7.66118 3.32244 7.68814 3.35758 7.70653 3.39729C7.72493 3.437 7.7343 3.48029 7.73398 3.52405V5.23174C7.55463 5.12462 7.34994 5.06731 7.14103 5.06572C6.90649 5.06572 6.6772 5.13527 6.48218 5.26558C6.28717 5.39588 6.13517 5.5811 6.04541 5.79779C5.95565 6.01448 5.93217 6.25293 5.97792 6.48297C6.02368 6.71301 6.13663 6.92432 6.30248 7.09017C6.46833 7.25602 6.67964 7.36896 6.90968 7.41472C7.13972 7.46048 7.37816 7.437 7.59486 7.34724C7.81155 7.25748 7.99676 7.10548 8.12707 6.91046C8.25738 6.71544 8.32693 6.48616 8.32693 6.25161V2.39745C8.32713 2.2232 8.28881 2.05105 8.21469 1.89334C8.14058 1.73563 8.03251 1.59626 7.89823 1.4852Z" fill="currentColor"/>
</svg>
